HIERARCHY
ROOT Hips
{
	OFFSET 49.049500 22.792786 95.190498
	CHANNELS 6 Xposition Yposition Zposition Xrotation Yrotation Zrotation
	JOINT spine
	{
		OFFSET 0.000000 -0.458069 7.965683
		CHANNELS 3 Xrotation Yrotation Zrotation
		JOINT spine1
		{
			OFFSET 0.000000 -0.000002 10.243103
			CHANNELS 3 Xrotation Yrotation Zrotation
			JOINT spine2
			{
				OFFSET 0.000000 -0.000002 9.814751
				CHANNELS 3 Xrotation Yrotation Zrotation
				JOINT Neck
				{
					OFFSET 0.000000 -1.201384 25.198593
					CHANNELS 3 Xrotation Yrotation Zrotation
					JOINT Head
					{
						OFFSET 0.000000 0.000000 7.613144
						CHANNELS 3 Xrotation Yrotation Zrotation
						End Site
						{
							OFFSET 0.000000 6.077326 18.428101
						}
					}
				}
				JOINT RightShoulder
				{
					OFFSET -4.132698 0.575451 10.599197
					CHANNELS 3 Xrotation Yrotation Zrotation
					JOINT RightArm
					{
						OFFSET 0.000000 -0.000004 13.901794
						CHANNELS 3 Xrotation Yrotation Zrotation
						JOINT RightArmRoll
						{
							OFFSET 0.000000 0.000000 7.017883
							CHANNELS 3 Xrotation Yrotation Zrotation
							JOINT RightForeArm
							{
								OFFSET 0.000000 -0.000004 20.440598
								CHANNELS 3 Xrotation Yrotation Zrotation
								JOINT RightForeArmRoll
								{
									OFFSET 0.000000 -0.000002 7.875153
									CHANNELS 3 Xrotation Yrotation Zrotation
									JOINT RightHand
									{
										OFFSET 0.000000 -0.000002 15.803696
										CHANNELS 3 Xrotation Yrotation Zrotation
										End Site
										{
											OFFSET 0.000000 0.000000 0.100006
										}
									}
								}
							}
						}
					}
				}
				JOINT LeftShoulder
				{
					OFFSET 4.132698 0.575451 10.599197
					CHANNELS 3 Xrotation Yrotation Zrotation
					JOINT LeftArm
					{
						OFFSET 0.000000 -0.000004 13.901794
						CHANNELS 3 Xrotation Yrotation Zrotation
						JOINT LeftArmRoll
						{
							OFFSET 0.000000 0.000000 7.017883
							CHANNELS 3 Xrotation Yrotation Zrotation
							JOINT LeftForeArm
							{
								OFFSET 0.000000 -0.000004 20.440598
								CHANNELS 3 Xrotation Yrotation Zrotation
								JOINT LeftForeArmRoll
								{
									OFFSET 0.000000 -0.000002 7.875153
									CHANNELS 3 Xrotation Yrotation Zrotation
									JOINT LeftHand
									{
										OFFSET 0.000000 -0.000002 15.803696
										CHANNELS 3 Xrotation Yrotation Zrotation
										End Site
										{
											OFFSET 0.000000 0.000000 0.100006
										}
									}
								}
							}
						}
					}
				}
			}
		}
	}
	JOINT RightUpLeg
	{
		OFFSET -7.060478 1.086100 -1.294693
		CHANNELS 3 Xrotation Yrotation Zrotation
		JOINT RightUpLegRoll
		{
			OFFSET 0.000000 -0.000004 18.530800
			CHANNELS 3 Xrotation Yrotation Zrotation
			JOINT RightLeg
			{
				OFFSET 0.000000 0.000004 -22.947601
				CHANNELS 3 Xrotation Yrotation Zrotation
				JOINT RightLegRoll
				{
					OFFSET 0.000000 -0.000004 23.022598
					CHANNELS 3 Xrotation Yrotation Zrotation
					JOINT RightFoot
					{
						OFFSET 0.000000 -0.000002 19.162491
						CHANNELS 3 Xrotation Yrotation Zrotation
						JOINT RightToeBase
						{
							OFFSET 0.000000 -0.000004 16.018799
							CHANNELS 3 Xrotation Yrotation Zrotation
							End Site
							{
								OFFSET 0.006790 0.894207 7.757812
							}
						}
					}
				}
			}
		}
	}
	JOINT LeftUpLeg
	{
		OFFSET 7.060478 1.086100 -1.294693
		CHANNELS 3 Xrotation Yrotation Zrotation
		JOINT LeftUpLegRoll
		{
			OFFSET 0.000000 -0.000004 18.530899
			CHANNELS 3 Xrotation Yrotation Zrotation
			JOINT LeftLeg
			{
				OFFSET 0.000000 -0.000004 22.947487
				CHANNELS 3 Xrotation Yrotation Zrotation
				JOINT LeftLegRoll
				{
					OFFSET 0.000000 -0.000004 23.235504
					CHANNELS 3 Xrotation Yrotation Zrotation
					JOINT LeftFoot
					{
						OFFSET 0.000000 -0.000002 18.949600
						CHANNELS 3 Xrotation Yrotation Zrotation
						JOINT LeftToeBase
						{
							OFFSET 0.000000 -0.000004 16.018799
							CHANNELS 3 Xrotation Yrotation Zrotation
							End Site
							{
								OFFSET -0.030430 0.894207 7.757812
							}
						}
					}
				}
			}
		}
	}
}
MOTION
Frames: 9
Frame Time: 0.041667
58.439304 -14.160622 104.453011 3.020235 4.240283 4.250060 -1.700632 -0.072337 -0.159431 0.601361 -0.141421 -0.320313 2.246437 -0.145250 -0.318598 2.394070 -10.938375 -0.418691 -3.817871 5.768158 0.682378 -10.884031 -61.003445 -12.944449 -433.131201 -100.987052 -424.558412 -0.000002 -0.000004 0.000001 24.445433 -16.723047 2.844767 -0.000003 0.000007 -2.999991 -5.000177 -7.999830 0.000037 -2.396698 54.906713 2.387933 -423.624397 106.171350 422.722593 0.000004 0.000002 -0.000004 25.465018 19.295204 -4.282137 -0.000004 -0.000000 3.006499 -5.000172 8.000090 -0.000005 -7.942059 -174.921923 -1.749559 -179.999991 0.000005 -1.109996 167.231021 -2.834246 -0.978022 -0.000002 -0.000002 0.166818 69.685640 6.972780 1.868316 25.213541 -7.354588 -0.339852 -12.472790 168.613779 0.010851 -0.000021 -0.000005 -1.056219 -17.100936 0.228203 0.586630 -0.000005 0.000000 -0.348521 70.606602 -6.962238 -1.831889 25.245689 7.354853 0.295992 
58.365604 -14.206417 104.864998 2.884477 4.268825 4.313830 -1.689952 -0.071075 -0.140526 0.622760 -0.139323 -0.282463 2.267837 -0.142700 -0.280775 2.536928 -11.289510 -0.433644 -3.690752 6.012337 0.679055 -11.317513 -61.072587 -13.454503 -434.260067 -100.821078 -425.585317 -0.000002 -0.000002 0.000001 24.141553 -16.801797 2.832938 0.000001 0.000007 -2.999990 -5.000172 -7.999829 0.000037 -2.179963 54.862774 2.122502 -424.004046 105.841356 423.415557 0.000004 0.000000 -0.000004 25.953602 19.499555 -4.416959 -0.000003 -0.000001 3.006510 -5.000166 8.000091 -0.000005 -7.320813 -175.127853 -1.985877 -179.999991 0.000005 -1.105994 168.274401 -2.617301 -0.901039 -0.000003 -0.000002 0.148304 69.525670 6.975237 1.873923 25.237196 -7.354797 -0.306891 -12.136863 168.632890 0.095163 -0.000021 -0.000004 -1.045591 -16.469041 0.132712 0.556351 -0.000005 0.000000 -0.345749 70.696133 -6.954598 -1.844382 25.266203 7.355014 0.267277 
58.386703 -14.267719 105.365005 2.749059 4.295798 4.382423 -1.678291 -0.069637 -0.121347 0.646088 -0.136872 -0.244058 2.291166 -0.139788 -0.242402 2.674224 -11.633464 -0.451298 -3.561788 6.252954 0.670469 -11.757506 -61.135493 -13.972312 -435.390463 -100.660418 -426.609435 -0.000002 -0.000002 0.000001 23.830037 -16.878316 2.819093 -0.000000 0.000008 -2.999990 -5.000176 -7.999829 0.000038 -1.958267 54.822042 1.851653 -424.425387 105.516143 424.151141 0.000004 -0.000000 -0.000004 26.436959 19.702032 -4.553674 -0.000005 -0.000001 3.006511 -5.000166 8.000090 -0.000003 -6.713984 -175.324139 -2.217377 -179.999991 0.000005 -1.102005 169.287755 -2.404413 -0.831702 -0.000003 -0.000002 0.130476 69.371431 6.977670 1.879176 25.267718 -7.355040 -0.264328 -11.819508 168.651263 0.178092 -0.000021 -0.000004 -1.034880 -15.870602 0.039462 0.528393 -0.000004 -0.000000 -0.344320 70.797588 -6.946521 -1.857067 25.292677 7.355196 0.230202 
58.449905 -14.352524 105.785004 2.616594 4.321307 4.454155 -1.666401 -0.068074 -0.102456 0.669884 -0.134155 -0.206226 2.314966 -0.136617 -0.204606 2.809765 -11.964514 -0.469712 -3.435279 6.485435 0.657974 -12.191509 -61.191726 -14.483232 -436.513620 -100.502450 -427.622626 -0.000001 0.000000 0.000001 23.513292 -16.952613 2.803487 0.000002 0.000007 -2.999989 -5.000173 -7.999829 0.000038 -1.737291 54.785986 1.582401 -424.892872 105.195548 424.930930 0.000004 0.000002 -0.000004 26.912527 19.901718 -4.691736 -0.000002 -0.000001 3.006511 -5.000166 8.000090 -0.000005 -6.129052 -175.509702 -2.442173 -179.999991 0.000006 -1.097006 170.259896 -2.198867 -0.771347 -0.000003 -0.000003 0.113478 69.223796 6.979927 1.884390 25.302473 -7.355269 -0.215778 -11.522598 168.667888 0.258006 -0.000019 -0.000004 -1.024220 -15.307303 -0.049624 0.503070 -0.000005 -0.000000 -0.343865 70.906024 -6.938212 -1.869999 25.322790 7.355366 0.187933 
58.392605 -14.404118 106.258011 2.489661 4.345490 4.527338 -1.655011 -0.066440 -0.084412 0.692687 -0.131260 -0.170090 2.337775 -0.133290 -0.168509 2.947388 -12.276830 -0.486893 -3.315502 6.705241 0.643028 -12.607053 -61.241300 -14.972616 -437.621476 -100.344440 -428.617757 -0.000001 0.000000 -0.000000 23.194028 -17.025088 2.786610 0.000002 0.000008 -2.999990 -5.000176 -7.999830 0.000038 -1.522705 54.756462 1.321729 -425.410683 104.879153 425.756345 0.000005 0.000000 -0.000004 27.377498 20.097779 -4.830467 -0.000005 -0.000001 3.006520 -5.000169 8.000090 -0.000004 -5.573499 -175.684418 -2.658156 -179.999991 0.000006 -1.093003 171.179977 -2.003054 -0.720736 -0.000003 -0.000003 0.097457 69.083518 6.982099 1.889436 25.338947 -7.355447 -0.164831 -11.248156 168.682764 0.333113 -0.000021 -0.000004 -1.013770 -14.780937 -0.132606 0.480627 -0.000005 -0.000001 -0.344016 71.016585 -6.930020 -1.882534 25.354519 7.355489 0.143551 
58.335205 -14.432621 106.586006 2.370863 4.368511 4.600285 -1.644851 -0.064787 -0.067780 0.713036 -0.128288 -0.136779 2.358125 -0.129920 -0.135234 3.090911 -12.564477 -0.500846 -3.206751 6.907851 0.627193 -12.991494 -61.284173 -15.425596 -438.706520 -100.183371 -429.587917 -0.000002 0.000000 0.000001 22.874780 -17.095777 2.768799 0.000002 0.000007 -2.999989 -5.000173 -7.999829 0.000038 -1.320092 54.735333 1.076539 -425.983435 104.567061 426.629216 0.000003 0.000004 -0.000004 27.829360 20.289434 -4.969239 -0.000003 -0.000001 3.006519 -5.000169 8.000090 -0.000004 -5.054778 -175.848152 -2.863162 -179.999991 0.000004 -1.089000 172.037029 -1.820289 -0.677584 -0.000003 -0.000002 0.082559 68.951702 6.984013 1.894310 25.374515 -7.355564 -0.115088 -10.997948 168.694922 0.401754 -0.000021 -0.000004 -1.003650 -14.293295 -0.207542 0.461251 -0.000006 -0.000000 -0.344401 71.124208 -6.922160 -1.894825 25.385438 7.355582 0.100229 
58.318306 -14.485523 107.061996 2.262786 4.390537 4.671283 -1.636641 -0.063171 -0.053116 0.729469 -0.125340 -0.107412 2.374555 -0.126620 -0.105904 3.244143 -12.821599 -0.509570 -3.113330 7.088749 0.612102 -13.332301 -61.320612 -15.827432 -439.762932 -100.016420 -430.527915 -0.000001 -0.000002 -0.000000 22.558330 -17.164904 2.750493 0.000002 0.000007 -2.999990 -5.000174 -7.999830 0.000039 -1.135003 54.724295 0.853679 -426.615774 104.259115 427.551319 0.000004 0.000001 -0.000004 28.265085 20.475753 -5.107098 -0.000003 -0.000001 3.006520 -5.000165 8.000090 -0.000005 -4.580331 -175.999768 -3.054995 -179.999991 0.000005 -1.084997 172.820096 -1.654923 -0.644439 -0.000004 -0.000002 0.068930 68.828875 6.985717 1.899282 25.406743 -7.355615 -0.070129 -10.773968 168.702380 0.462498 -0.000020 -0.000005 -0.994006 -13.845960 -0.272474 0.445083 -0.000005 -0.000000 -0.344650 71.224168 -6.914832 -1.906500 25.413317 7.355623 0.061080 
58.211304 -14.424324 107.367004 2.168025 4.411802 4.738637 -1.631111 -0.061647 -0.040987 0.740526 -0.122521 -0.083116 2.385615 -0.123509 -0.081645 3.410887 -13.042246 -0.511063 -3.039547 7.243424 0.599446 -13.617090 -61.351300 -16.163446 -440.784646 -99.840557 -431.432314 -0.000001 -0.000001 0.000000 22.247140 -17.232760 2.732119 0.000002 0.000007 -2.999989 -5.000175 -7.999828 0.000037 -0.972994 54.725504 0.660002 -427.312726 103.955336 428.524921 0.000004 0.000002 -0.000004 28.682201 20.655954 -5.243334 -0.000006 -0.000001 3.006530 -5.000168 8.000090 -0.000005 -4.157580 -176.139145 -3.231335 -179.999991 0.000006 -1.080995 173.518251 -1.509296 -0.618460 -0.000003 -0.000003 0.056715 68.716252 6.987130 1.904165 25.432909 -7.355633 -0.033560 -10.578179 168.704143 0.513689 -0.000020 -0.000005 -0.984979 -13.440720 -0.325451 0.432240 -0.000006 -0.000000 -0.344391 71.311519 -6.908320 -1.917203 25.436045 7.355625 0.029235 
58.196507 -14.472519 107.820007 2.089173 4.432514 4.800637 -1.629012 -0.060270 -0.031950 0.744745 -0.119935 -0.065014 2.389835 -0.120707 -0.063575 3.594939 -13.220654 -0.503397 -2.989734 7.367379 0.590943 -13.833308 -61.376538 -16.418813 -441.765325 -99.652761 -432.295568 -0.000001 -0.000004 -0.000000 21.943965 -17.299324 2.714056 0.000002 0.000006 -2.999990 -5.000173 -7.999830 0.000038 -0.839607 54.740797 0.502352 -428.080030 103.655880 429.552919 0.000004 0.000003 -0.000004 29.077618 20.829248 -5.376906 -0.000006 -0.000001 3.006531 -5.000171 8.000091 -0.000006 -3.793942 -176.266173 -3.389819 -179.999991 0.000005 -1.077006 174.120510 -1.386664 -0.600783 -0.000003 -0.000002 0.046061 68.614346 6.988260 1.909119 25.450478 -7.355625 -0.008984 -10.412366 168.701178 0.553302 -0.000020 -0.000005 -0.976706 -13.079268 -0.364520 0.422830 -0.000006 0.000001 -0.343256 71.381201 -6.902859 -1.926785 25.451298 7.355619 0.007832 
